<svg width="2990" height="3194" viewBox="0 0 2990 3194" fill="none" xmlns="http://www.w3.org/2000/svg">
<path d="M1543.94 1811.25C1530.56 1827.25 1063.14 1616.96 951.691 1397.25C707.472 867.597 1587.23 519.313 1394.44 0C2516.8 679.239 1072.7 1340.01 1543.94 1811.25Z" fill="url(#paint0_linear_4_14)"/>
<path d="M2020.99 1311C2134.94 1060.15 2064.6 910.117 1900.24 667C1874.46 1054.74 1444.44 1372.1 1560.99 1748C1812.2 1573.07 1942.83 1474.43 2020.99 1311Z" fill="url(#paint1_linear_4_14)"/>
<path d="M234.767 2748.11H113.568L114.365 2685.52H234.767C276.23 2685.52 310.782 2676.88 338.424 2659.6C366.066 2642.06 386.798 2617.61 400.619 2586.24C414.705 2554.61 421.749 2517.67 421.749 2475.41V2439.93C421.749 2406.7 417.762 2377.2 409.788 2351.42C401.815 2325.37 390.12 2303.45 374.704 2285.64C359.289 2267.56 340.418 2253.88 318.092 2244.57C296.031 2235.27 270.648 2230.62 241.943 2230.62H111.176V2167.63H241.943C279.951 2167.63 314.636 2174.01 345.999 2186.76C377.362 2199.26 404.34 2217.46 426.932 2241.38C449.789 2265.04 467.331 2293.74 479.558 2327.5C491.784 2360.99 497.897 2398.73 497.897 2440.72V2475.41C497.897 2517.4 491.784 2555.28 479.558 2589.03C467.331 2622.52 449.657 2651.1 426.533 2674.75C403.675 2698.41 376.033 2716.61 343.607 2729.37C311.447 2741.86 275.167 2748.11 234.767 2748.11ZM154.632 2167.63V2748.11H77.6865V2167.63H154.632ZM982.295 2685.52V2748.11H674.912V2685.52H982.295ZM690.46 2167.63V2748.11H613.515V2167.63H690.46ZM941.63 2417.2V2479.8H674.912V2417.2H941.63ZM978.308 2167.63V2230.62H674.912V2167.63H978.308ZM1446.36 2685.52V2748.11H1138.98V2685.52H1446.36ZM1154.53 2167.63V2748.11H1077.58V2167.63H1154.53ZM1405.7 2417.2V2479.8H1138.98V2417.2H1405.7ZM1442.37 2167.63V2230.62H1138.98V2167.63H1442.37ZM1755.74 2520.46H1600.65V2457.87H1755.74C1785.77 2457.87 1810.09 2453.08 1828.7 2443.52C1847.3 2433.95 1860.86 2420.66 1869.36 2403.65C1878.13 2386.64 1882.52 2367.23 1882.52 2345.44C1882.52 2325.51 1878.13 2306.77 1869.36 2289.23C1860.86 2271.68 1847.3 2257.6 1828.7 2246.97C1810.09 2236.07 1785.77 2230.62 1755.74 2230.62H1618.59V2748.11H1541.65V2167.63H1755.74C1799.59 2167.63 1836.67 2175.2 1866.97 2190.35C1897.27 2205.5 1920.26 2226.5 1935.94 2253.34C1951.62 2279.92 1959.46 2310.36 1959.46 2344.64C1959.46 2381.85 1951.62 2413.61 1935.94 2439.93C1920.26 2466.24 1897.27 2486.31 1866.97 2500.13C1836.67 2513.68 1799.59 2520.46 1755.74 2520.46ZM2216.61 2219.06L2024.45 2748.11H1945.91L2167.18 2167.63H2217.81L2216.61 2219.06ZM2377.68 2748.11L2185.12 2219.06L2183.92 2167.63H2234.55L2456.62 2748.11H2377.68ZM2367.71 2533.22V2596.21H2041.59V2533.22H2367.71ZM2611.31 2167.63V2748.11H2534.36V2167.63H2611.31ZM2961.75 2167.63L2720.55 2438.33L2585 2579.07L2572.24 2496.94L2674.3 2384.51L2869.26 2167.63H2961.75ZM2887.6 2748.11L2672.71 2465.04L2718.55 2404.05L2979.29 2748.11H2887.6ZM76.5771 3040.21H42.3394V3018.62H76.5771C81.8682 3018.62 86.1748 3017.76 89.4971 3016.03C92.8193 3014.25 95.2495 3011.79 96.7876 3008.65C98.3257 3005.51 99.0947 3001.98 99.0947 2998.04C99.0947 2994.04 98.3257 2990.32 96.7876 2986.87C95.2495 2983.43 92.8193 2980.66 89.4971 2978.57C86.1748 2976.47 81.8682 2975.43 76.5771 2975.43H51.937V3088.11H24.2515V2953.74H76.5771C87.0977 2953.74 96.1108 2955.65 103.617 2959.46C111.184 2963.22 116.967 2968.41 120.966 2975.06C124.965 2981.7 126.965 2989.3 126.965 2997.85C126.965 3006.53 124.965 3014.03 120.966 3020.37C116.967 3026.71 111.184 3031.6 103.617 3035.04C96.1108 3038.49 87.0977 3040.21 76.5771 3040.21ZM146.068 2953.74H196.179C206.453 2953.74 215.282 2955.28 222.665 2958.36C230.109 2961.43 235.831 2965.98 239.83 2972.01C243.829 2978.04 245.828 2985.46 245.828 2994.25C245.828 3001.45 244.598 3007.64 242.137 3012.8C239.737 3017.91 236.323 3022.19 231.893 3025.63C227.525 3029.02 222.388 3031.72 216.481 3033.75L207.714 3038.37H164.156L163.971 3016.77H196.363C201.224 3016.77 205.253 3015.91 208.453 3014.19C211.652 3012.47 214.051 3010.07 215.651 3006.99C217.312 3003.91 218.143 3000.35 218.143 2996.28C218.143 2991.98 217.343 2988.26 215.743 2985.12C214.144 2981.98 211.713 2979.58 208.453 2977.92C205.192 2976.26 201.101 2975.43 196.179 2975.43H173.753V3088.11H146.068V2953.74ZM221.188 3088.11L190.549 3028.22L219.804 3028.03L250.812 3086.82V3088.11H221.188ZM321.779 2976.72L285.234 3088.11H255.795L305.721 2953.74H324.455L321.779 2976.72ZM352.141 3088.11L315.503 2976.72L312.55 2953.74H331.469L381.672 3088.11H352.141ZM350.479 3038.09V3059.78H279.512V3038.09H350.479ZM421.816 2953.74V3088.11H394.13V2953.74H421.816ZM502.289 2953.74L449.04 3020.09L418.309 3053.13L413.326 3026.92L434.09 2998.5L468.328 2953.74H502.289ZM470.819 3088.11L431.229 3026L451.716 3008.84L503.581 3088.11H470.819ZM568.918 2976.72L532.374 3088.11H502.935L552.861 2953.74H571.595L568.918 2976.72ZM599.28 3088.11L562.643 2976.72L559.69 2953.74H578.608L628.812 3088.11H599.28ZM597.619 3038.09V3059.78H526.652V3038.09H597.619ZM711.222 3052.95C711.222 3050.55 710.853 3048.4 710.115 3046.49C709.438 3044.52 708.146 3042.73 706.239 3041.14C704.332 3039.47 701.655 3037.84 698.21 3036.24C694.765 3034.64 690.304 3032.98 684.829 3031.26C678.738 3029.29 672.955 3027.08 667.479 3024.62C662.065 3022.16 657.266 3019.29 653.083 3016.03C648.96 3012.71 645.7 3008.87 643.3 3004.5C640.962 3000.13 639.793 2995.05 639.793 2989.27C639.793 2983.67 641.024 2978.6 643.485 2974.04C645.946 2969.43 649.391 2965.49 653.821 2962.23C658.25 2958.91 663.48 2956.36 669.509 2954.57C675.6 2952.79 682.275 2951.9 689.535 2951.9C699.44 2951.9 708.084 2953.68 715.467 2957.25C722.85 2960.82 728.572 2965.71 732.632 2971.92C736.754 2978.14 738.815 2985.24 738.815 2993.24H711.314C711.314 2989.3 710.484 2985.86 708.823 2982.9C707.223 2979.89 704.762 2977.52 701.44 2975.8C698.179 2974.07 694.057 2973.21 689.074 2973.21C684.275 2973.21 680.276 2973.95 677.077 2975.43C673.877 2976.84 671.478 2978.78 669.878 2981.24C668.279 2983.64 667.479 2986.35 667.479 2989.36C667.479 2991.64 668.033 2993.7 669.14 2995.55C670.309 2997.39 672.032 2999.11 674.308 3000.71C676.584 3002.31 679.384 3003.82 682.706 3005.24C686.028 3006.65 689.874 3008.04 694.242 3009.39C701.563 3011.6 707.992 3014.1 713.529 3016.86C719.128 3019.63 723.804 3022.74 727.557 3026.19C731.31 3029.63 734.14 3033.54 736.047 3037.91C737.954 3042.27 738.908 3047.23 738.908 3052.76C738.908 3058.61 737.77 3063.84 735.493 3068.45C733.217 3073.07 729.925 3076.97 725.619 3080.17C721.312 3083.37 716.175 3085.8 710.207 3087.46C704.239 3089.12 697.564 3089.95 690.181 3089.95C683.537 3089.95 676.984 3089.09 670.524 3087.37C664.064 3085.59 658.189 3082.91 652.898 3079.34C647.668 3075.77 643.485 3071.22 640.347 3065.68C637.209 3060.15 635.641 3053.59 635.641 3046.03H663.418C663.418 3050.21 664.064 3053.75 665.356 3056.64C666.648 3059.53 668.463 3061.87 670.801 3063.65C673.201 3065.44 676.031 3066.73 679.292 3067.53C682.614 3068.33 686.244 3068.73 690.181 3068.73C694.98 3068.73 698.917 3068.05 701.994 3066.7C705.131 3065.34 707.438 3063.47 708.915 3061.07C710.453 3058.67 711.222 3055.96 711.222 3052.95ZM847.343 3008.47V3030.06H777.206V3008.47H847.343ZM785.419 2953.74V3088.11H757.734V2953.74H785.419ZM867.092 2953.74V3088.11H839.499V2953.74H867.092ZM990.846 3029.14H956.332L956.147 3010.13H985.125C990.231 3010.13 994.415 3009.48 997.675 3008.19C1000.94 3006.84 1003.37 3004.9 1004.97 3002.38C1006.63 2999.79 1007.46 2996.65 1007.46 2992.96C1007.46 2988.78 1006.66 2985.4 1005.06 2982.81C1003.52 2980.23 1001.09 2978.35 997.768 2977.18C994.507 2976.01 990.292 2975.43 985.125 2975.43H965.929V3088.11H938.244V2953.74H985.125C992.938 2953.74 999.921 2954.48 1006.07 2955.96C1012.29 2957.43 1017.55 2959.68 1021.85 2962.69C1026.16 2965.71 1029.45 2969.52 1031.73 2974.14C1034 2978.69 1035.14 2984.1 1035.14 2990.38C1035.14 2995.92 1033.88 3001.02 1031.36 3005.7C1028.9 3010.37 1024.99 3014.19 1019.64 3017.14C1014.35 3020.09 1007.43 3021.72 998.875 3022.03L990.846 3029.14ZM989.646 3088.11H948.764L959.562 3066.51H989.646C994.507 3066.51 998.475 3065.74 1001.55 3064.21C1004.63 3062.61 1006.9 3060.45 1008.38 3057.75C1009.86 3055.04 1010.6 3051.93 1010.6 3048.43C1010.6 3044.49 1009.92 3041.07 1008.56 3038.18C1007.27 3035.29 1005.18 3033.08 1002.29 3031.54C999.398 3029.94 995.583 3029.14 990.846 3029.14H964.176L964.36 3010.13H997.583L1003.95 3017.6C1012.13 3017.48 1018.72 3018.93 1023.7 3021.94C1028.74 3024.89 1032.41 3028.74 1034.68 3033.48C1037.02 3038.21 1038.19 3043.29 1038.19 3048.7C1038.19 3057.32 1036.31 3064.58 1032.56 3070.48C1028.81 3076.33 1023.3 3080.73 1016.04 3083.68C1008.84 3086.63 1000.04 3088.11 989.646 3088.11ZM1113.59 2976.72L1077.04 3088.11H1047.6L1097.53 2953.74H1116.26L1113.59 2976.72ZM1143.95 3088.11L1107.31 2976.72L1104.36 2953.74H1123.28L1173.48 3088.11H1143.95ZM1142.29 3038.09V3059.78H1071.32V3038.09H1142.29ZM1255.89 3052.95C1255.89 3050.55 1255.52 3048.4 1254.78 3046.49C1254.1 3044.52 1252.81 3042.73 1250.91 3041.14C1249 3039.47 1246.32 3037.84 1242.88 3036.24C1239.43 3034.64 1234.97 3032.98 1229.5 3031.26C1223.4 3029.29 1217.62 3027.08 1212.15 3024.62C1206.73 3022.16 1201.93 3019.29 1197.75 3016.03C1193.63 3012.71 1190.37 3008.87 1187.97 3004.5C1185.63 3000.13 1184.46 2995.05 1184.46 2989.27C1184.46 2983.67 1185.69 2978.6 1188.15 2974.04C1190.61 2969.43 1194.06 2965.49 1198.49 2962.23C1202.92 2958.91 1208.15 2956.36 1214.18 2954.57C1220.27 2952.79 1226.94 2951.9 1234.2 2951.9C1244.11 2951.9 1252.75 2953.68 1260.13 2957.25C1267.52 2960.82 1273.24 2965.71 1277.3 2971.92C1281.42 2978.14 1283.48 2985.24 1283.48 2993.24H1255.98C1255.98 2989.3 1255.15 2985.86 1253.49 2982.9C1251.89 2979.89 1249.43 2977.52 1246.11 2975.8C1242.85 2974.07 1238.72 2973.21 1233.74 2973.21C1228.94 2973.21 1224.94 2973.95 1221.74 2975.43C1218.54 2976.84 1216.15 2978.78 1214.55 2981.24C1212.95 2983.64 1212.15 2986.35 1212.15 2989.36C1212.15 2991.64 1212.7 2993.7 1213.81 2995.55C1214.98 2997.39 1216.7 2999.11 1218.98 3000.71C1221.25 3002.31 1224.05 3003.82 1227.37 3005.24C1230.7 3006.65 1234.54 3008.04 1238.91 3009.39C1246.23 3011.6 1252.66 3014.1 1258.2 3016.86C1263.79 3019.63 1268.47 3022.74 1272.22 3026.19C1275.98 3029.63 1278.81 3033.54 1280.71 3037.91C1282.62 3042.27 1283.57 3047.23 1283.57 3052.76C1283.57 3058.61 1282.44 3063.84 1280.16 3068.45C1277.88 3073.07 1274.59 3076.97 1270.29 3080.17C1265.98 3083.37 1260.84 3085.8 1254.87 3087.46C1248.91 3089.12 1242.23 3089.95 1234.85 3089.95C1228.2 3089.95 1221.65 3089.09 1215.19 3087.37C1208.73 3085.59 1202.86 3082.91 1197.56 3079.34C1192.34 3075.77 1188.15 3071.22 1185.01 3065.68C1181.88 3060.15 1180.31 3053.59 1180.31 3046.03H1208.09C1208.09 3050.21 1208.73 3053.75 1210.02 3056.64C1211.32 3059.53 1213.13 3061.87 1215.47 3063.65C1217.87 3065.44 1220.7 3066.73 1223.96 3067.53C1227.28 3068.33 1230.91 3068.73 1234.85 3068.73C1239.65 3068.73 1243.58 3068.05 1246.66 3066.7C1249.8 3065.34 1252.11 3063.47 1253.58 3061.07C1255.12 3058.67 1255.89 3055.96 1255.89 3052.95ZM1330.09 2953.74V3088.11H1302.4V2953.74H1330.09ZM1410.56 2953.74L1357.31 3020.09L1326.58 3053.13L1321.6 3026.92L1342.36 2998.5L1376.6 2953.74H1410.56ZM1379.09 3088.11L1339.5 3026L1359.99 3008.84L1411.85 3088.11H1379.09ZM1529.98 3017.79V3024.15C1529.98 3034.37 1528.59 3043.53 1525.82 3051.66C1523.05 3059.78 1519.15 3066.7 1514.1 3072.42C1509.06 3078.08 1503.03 3082.42 1496.02 3085.43C1489.06 3088.45 1481.34 3089.95 1472.85 3089.95C1464.42 3089.95 1456.7 3088.45 1449.69 3085.43C1442.74 3082.42 1436.71 3078.08 1431.6 3072.42C1426.49 3066.7 1422.53 3059.78 1419.7 3051.66C1416.93 3043.53 1415.54 3034.37 1415.54 3024.15V3017.79C1415.54 3007.51 1416.93 2998.35 1419.7 2990.29C1422.46 2982.17 1426.37 2975.24 1431.42 2969.52C1436.52 2963.8 1442.55 2959.43 1449.5 2956.42C1456.52 2953.4 1464.24 2951.9 1472.67 2951.9C1481.16 2951.9 1488.88 2953.4 1495.83 2956.42C1502.84 2959.43 1508.87 2963.8 1513.92 2969.52C1519.02 2975.24 1522.96 2982.17 1525.73 2990.29C1528.56 2998.35 1529.98 3007.51 1529.98 3017.79ZM1502.01 3024.15V3017.6C1502.01 3010.47 1501.37 3004.19 1500.08 2998.78C1498.78 2993.36 1496.88 2988.81 1494.35 2985.12C1491.83 2981.43 1488.76 2978.66 1485.13 2976.81C1481.5 2974.91 1477.34 2973.95 1472.67 2973.95C1467.99 2973.95 1463.84 2974.91 1460.21 2976.81C1456.64 2978.66 1453.59 2981.43 1451.07 2985.12C1448.61 2988.81 1446.73 2993.36 1445.44 2998.78C1444.15 3004.19 1443.5 3010.47 1443.5 3017.6V3024.15C1443.5 3031.23 1444.15 3037.51 1445.44 3042.98C1446.73 3048.4 1448.64 3052.98 1451.16 3056.73C1453.69 3060.42 1456.76 3063.22 1460.39 3065.13C1464.02 3067.04 1468.18 3067.99 1472.85 3067.99C1477.53 3067.99 1481.68 3067.04 1485.31 3065.13C1488.94 3063.22 1491.99 3060.42 1494.45 3056.73C1496.91 3052.98 1498.78 3048.4 1500.08 3042.98C1501.37 3037.51 1502.01 3031.23 1502.01 3024.15ZM1603.71 2953.74V3088.11H1576.12V2953.74H1603.71ZM1645.06 2953.74V2975.43H1535.42V2953.74H1645.06ZM1705.5 2976.72L1668.96 3088.11H1639.52L1689.44 2953.74H1708.18L1705.5 2976.72ZM1735.86 3088.11L1699.23 2976.72L1696.27 2953.74H1715.19L1765.4 3088.11H1735.86ZM1734.2 3038.09V3059.78H1663.24V3038.09H1734.2ZM1852.6 2953.74V3088.11H1824.92V2953.74H1852.6ZM1906.13 3011.14V3032.74H1845.04V3011.14H1906.13ZM1912.59 2953.74V2975.43H1845.04V2953.74H1912.59ZM2039.02 3017.79V3024.15C2039.02 3034.37 2037.64 3043.53 2034.87 3051.66C2032.1 3059.78 2028.19 3066.7 2023.15 3072.42C2018.1 3078.08 2012.07 3082.42 2005.06 3085.43C1998.11 3088.45 1990.39 3089.95 1981.9 3089.95C1973.47 3089.95 1965.75 3088.45 1958.73 3085.43C1951.78 3082.42 1945.75 3078.08 1940.65 3072.42C1935.54 3066.7 1931.57 3059.78 1928.74 3051.66C1925.97 3043.53 1924.59 3034.37 1924.59 3024.15V3017.79C1924.59 3007.51 1925.97 2998.35 1928.74 2990.29C1931.51 2982.17 1935.42 2975.24 1940.46 2969.52C1945.57 2963.8 1951.6 2959.43 1958.55 2956.42C1965.56 2953.4 1973.28 2951.9 1981.71 2951.9C1990.2 2951.9 1997.92 2953.4 2004.88 2956.42C2011.89 2959.43 2017.92 2963.8 2022.96 2969.52C2028.07 2975.24 2032.01 2982.17 2034.78 2990.29C2037.61 2998.35 2039.02 3007.51 2039.02 3017.79ZM2011.06 3024.15V3017.6C2011.06 3010.47 2010.41 3004.19 2009.12 2998.78C2007.83 2993.36 2005.92 2988.81 2003.4 2985.12C2000.88 2981.43 1997.8 2978.66 1994.17 2976.81C1990.54 2974.91 1986.39 2973.95 1981.71 2973.95C1977.04 2973.95 1972.88 2974.91 1969.25 2976.81C1965.69 2978.66 1962.64 2981.43 1960.12 2985.12C1957.66 2988.81 1955.78 2993.36 1954.49 2998.78C1953.2 3004.19 1952.55 3010.47 1952.55 3017.6V3024.15C1952.55 3031.23 1953.2 3037.51 1954.49 3042.98C1955.78 3048.4 1957.69 3052.98 1960.21 3056.73C1962.73 3060.42 1965.81 3063.22 1969.44 3065.13C1973.07 3067.04 1977.22 3067.99 1981.9 3067.99C1986.57 3067.99 1990.73 3067.04 1994.35 3065.13C1997.98 3063.22 2001.03 3060.42 2003.49 3056.73C2005.95 3052.98 2007.83 3048.4 2009.12 3042.98C2010.41 3037.51 2011.06 3031.23 2011.06 3024.15ZM2133.15 2953.74H2160.75V3042.52C2160.75 3052.86 2158.53 3061.56 2154.1 3068.64C2149.73 3075.71 2143.67 3081.03 2135.92 3084.6C2128.23 3088.17 2119.37 3089.95 2109.34 3089.95C2099.31 3089.95 2090.39 3088.17 2082.58 3084.6C2074.83 3081.03 2068.74 3075.71 2064.31 3068.64C2059.94 3061.56 2057.75 3052.86 2057.75 3042.52V2953.74H2085.44V3042.52C2085.44 3048.55 2086.39 3053.47 2088.3 3057.29C2090.21 3061.1 2092.95 3063.9 2096.51 3065.68C2100.14 3067.47 2104.42 3068.36 2109.34 3068.36C2114.39 3068.36 2118.66 3067.47 2122.17 3065.68C2125.74 3063.9 2128.45 3061.1 2130.29 3057.29C2132.2 3053.47 2133.15 3048.55 2133.15 3042.52V2953.74ZM2292.9 2953.74V3088.11H2265.21L2211.23 2998.04V3088.11H2183.54V2953.74H2211.23L2265.3 3043.9V2953.74H2292.9ZM2358.24 3088.11H2328.98L2329.17 3066.51H2358.24C2365.5 3066.51 2371.62 3064.88 2376.6 3061.62C2381.58 3058.3 2385.34 3053.47 2387.86 3047.13C2390.44 3040.8 2391.73 3033.14 2391.73 3024.15V3017.6C2391.73 3010.71 2391 3004.65 2389.52 2999.42C2388.1 2994.19 2385.98 2989.79 2383.15 2986.23C2380.32 2982.66 2376.85 2979.98 2372.72 2978.2C2368.6 2976.35 2363.86 2975.43 2358.51 2975.43H2328.43V2953.74H2358.51C2367.49 2953.74 2375.71 2955.28 2383.15 2958.36C2390.66 2961.37 2397.15 2965.71 2402.62 2971.37C2408.1 2977.03 2412.31 2983.8 2415.27 2991.67C2418.28 2999.48 2419.79 3008.19 2419.79 3017.79V3024.15C2419.79 3033.69 2418.28 3042.4 2415.27 3050.27C2412.31 3058.15 2408.1 3064.91 2402.62 3070.57C2397.21 3076.17 2390.72 3080.51 2383.15 3083.59C2375.65 3086.6 2367.34 3088.11 2358.24 3088.11ZM2344.67 2953.74V3088.11H2316.98V2953.74H2344.67ZM2492.51 2976.72L2455.97 3088.11H2426.53L2476.45 2953.74H2495.19L2492.51 2976.72ZM2522.87 3088.11L2486.23 2976.72L2483.28 2953.74H2502.2L2552.4 3088.11H2522.87ZM2521.21 3038.09V3059.78H2450.24V3038.09H2521.21ZM2613.5 2953.74V3088.11H2585.9V2953.74H2613.5ZM2654.84 2953.74V2975.43H2545.21V2953.74H2654.84ZM2700.06 2953.74V3088.11H2672.47V2953.74H2700.06ZM2836.36 3017.79V3024.15C2836.36 3034.37 2834.98 3043.53 2832.21 3051.66C2829.44 3059.78 2825.54 3066.7 2820.49 3072.42C2815.45 3078.08 2809.42 3082.42 2802.4 3085.43C2795.45 3088.45 2787.73 3089.95 2779.24 3089.95C2770.81 3089.95 2763.09 3088.45 2756.08 3085.43C2749.12 3082.42 2743.1 3078.08 2737.99 3072.42C2732.88 3066.7 2728.91 3059.78 2726.08 3051.66C2723.32 3043.53 2721.93 3034.37 2721.93 3024.15V3017.79C2721.93 3007.51 2723.32 2998.35 2726.08 2990.29C2728.85 2982.17 2732.76 2975.24 2737.8 2969.52C2742.91 2963.8 2748.94 2959.43 2755.89 2956.42C2762.91 2953.4 2770.63 2951.9 2779.06 2951.9C2787.55 2951.9 2795.27 2953.4 2802.22 2956.42C2809.23 2959.43 2815.26 2963.8 2820.31 2969.52C2825.41 2975.24 2829.35 2982.17 2832.12 2990.29C2834.95 2998.35 2836.36 3007.51 2836.36 3017.79ZM2808.4 3024.15V3017.6C2808.4 3010.47 2807.76 3004.19 2806.46 2998.78C2805.17 2993.36 2803.27 2988.81 2800.74 2985.12C2798.22 2981.43 2795.14 2978.66 2791.51 2976.81C2787.88 2974.91 2783.73 2973.95 2779.06 2973.95C2774.38 2973.95 2770.23 2974.91 2766.6 2976.81C2763.03 2978.66 2759.98 2981.43 2757.46 2985.12C2755 2988.81 2753.12 2993.36 2751.83 2998.78C2750.54 3004.19 2749.89 3010.47 2749.89 3017.6V3024.15C2749.89 3031.23 2750.54 3037.51 2751.83 3042.98C2753.12 3048.4 2755.03 3052.98 2757.55 3056.73C2760.08 3060.42 2763.15 3063.22 2766.78 3065.13C2770.41 3067.04 2774.56 3067.99 2779.24 3067.99C2783.92 3067.99 2788.07 3067.04 2791.7 3065.13C2795.33 3063.22 2798.37 3060.42 2800.83 3056.73C2803.3 3052.98 2805.17 3048.4 2806.46 3042.98C2807.76 3037.51 2808.4 3031.23 2808.4 3024.15ZM2965.66 2953.74V3088.11H2937.97L2883.98 2998.04V3088.11H2856.3V2953.74H2883.98L2938.06 3043.9V2953.74H2965.66Z" fill="#008080"/>
<defs>
<linearGradient id="paint0_linear_4_14" x1="1370.63" y1="0" x2="1370.63" y2="1812.11" gradientUnits="userSpaceOnUse">
<stop stop-color="#8EDE65"/>
<stop offset="1" stop-color="#008080"/>
</linearGradient>
<linearGradient id="paint1_linear_4_14" x1="1808.93" y1="667" x2="1808.93" y2="1748" gradientUnits="userSpaceOnUse">
<stop stop-color="#8EDE65"/>
<stop offset="1" stop-color="#008080"/>
</linearGradient>
</defs>
</svg>
