<svg width="64" height="64" viewBox="0 0 64 64" fill="none" xmlns="http://www.w3.org/2000/svg">
<rect width="64" height="64" fill="transparent"/>
<path d="M10.7199 42.9236C14.5132 47.3084 19.1052 53.573 27.948 54.9651C29.6618 54.9651 31.2387 55.6113 33.1604 55.2419C33.1604 55.2419 38.2235 49.9479 38.6048 49.1379C38.9955 48.7282 38.6048 49.1379 39.1917 48.3741C45.3332 48.3741 51.0081 45.6109 55.4521 40.426C62.1674 32.5842 64.2413 21.8182 62.3105 16.3408C56.6004 15.2728 45.4743 18.2794 38.7541 26.1191C37.6375 27.4145 36.6559 28.8204 35.8244 30.3149C34.5111 26.9897 32.5612 23.8026 29.9881 20.8292C22.6123 12.3113 9.87965 7.51909 2.03081 9.02697C-0.762874 17.081 2.11823 32.9817 10.7199 42.9236ZM47.4496 27.6594C44.1589 28.6865 40.0378 31.2525 37.2794 35.2185C36.628 36.1547 35.4148 38.6636 35.3373 38.868C35.3732 38.407 36.198 34.4847 36.7789 33.1474C37.7439 30.924 39.0572 29.0284 40.3656 27.5015C46.1638 20.7396 55.6459 17.492 60.9161 18.0728C62.2978 23.1907 59.6331 32.2824 53.8378 39.0457C50.6211 42.8017 45.2142 46.9277 37.3449 46.1283C37.0276 46.0965 36.711 46.0575 36.3954 46.0113C36.1938 43.2133 36.7443 40.7432 37.7496 38.6164C40.0117 33.8263 43.9108 31.0072 47.4136 29.9131L47.4496 27.6594ZM3.65289 11.0565C10.0354 10.2099 20.8972 13.5753 28.3816 22.22C30.4485 24.607 33.0455 28.3108 34.5301 33.0896C33.9723 34.5373 33.5823 36.0442 33.3676 37.5808C31.9592 34.6052 29.9874 31.7749 27.4785 29.1518C22.8703 24.3356 16.6288 20.4245 10.3548 18.4225L10.2645 20.9272C20.2021 24.0994 34.2333 33.9948 33.8414 49.615C23.282 51.2377 16.3327 46.1664 12.3251 41.5342C4.40436 32.3804 1.38297 18.732 3.65289 11.0565Z" fill="url(#paint0_linear_3_7)"/>
<defs>
<linearGradient id="paint0_linear_3_7" x1="32" y1="8.75171" x2="32" y2="55.3559" gradientUnits="userSpaceOnUse">
<stop stop-color="#347724"/>
<stop offset="0.5" stop-color="#347724"/>
<stop offset="0.75" stop-color="#2780B5"/>
<stop offset="1" stop-color="#2780B5"/>
</linearGradient>
</defs>
</svg>
